<?xml version="1.0" encoding="utf-8"?>
<svg xmlns="http://www.w3.org/2000/svg" xmlns:xlink="http://www.w3.org/1999/xlink" width="600" height="400" viewBox="0 0 2400 1600">
<defs>
  <clipPath id="clip710">
    <rect x="0" y="0" width="2400" height="1600"/>
  </clipPath>
</defs>
<path clip-path="url(#clip710)" d="M0 1600 L2400 1600 L2400 0 L0 0  Z" fill="#ffffff" fill-rule="evenodd" fill-opacity="1"/>
<defs>
  <clipPath id="clip711">
    <rect x="149" y="47" width="2205" height="1440"/>
  </clipPath>
</defs>
<path clip-path="url(#clip710)" d="M149.191 1486.45 L2352.76 1486.45 L2352.76 47.2441 L149.191 47.2441  Z" fill="#ffffff" fill-rule="evenodd" fill-opacity="1"/>
<polyline clip-path="url(#clip711)" style="stroke:#000000; stroke-linecap:round; stroke-linejoin:round; stroke-width:2; stroke-opacity:0.1; fill:none" points="384.792,1486.45 384.792,47.2441 "/>
<polyline clip-path="url(#clip711)" style="stroke:#000000; stroke-linecap:round; stroke-linejoin:round; stroke-width:2; stroke-opacity:0.1; fill:none" points="817.883,1486.45 817.883,47.2441 "/>
<polyline clip-path="url(#clip711)" style="stroke:#000000; stroke-linecap:round; stroke-linejoin:round; stroke-width:2; stroke-opacity:0.1; fill:none" points="1250.97,1486.45 1250.97,47.2441 "/>
<polyline clip-path="url(#clip711)" style="stroke:#000000; stroke-linecap:round; stroke-linejoin:round; stroke-width:2; stroke-opacity:0.1; fill:none" points="1684.06,1486.45 1684.06,47.2441 "/>
<polyline clip-path="url(#clip711)" style="stroke:#000000; stroke-linecap:round; stroke-linejoin:round; stroke-width:2; stroke-opacity:0.1; fill:none" points="2117.15,1486.45 2117.15,47.2441 "/>
<polyline clip-path="url(#clip711)" style="stroke:#000000; stroke-linecap:round; stroke-linejoin:round; stroke-width:2; stroke-opacity:0.1; fill:none" points="149.191,1235.68 2352.76,1235.68 "/>
<polyline clip-path="url(#clip711)" style="stroke:#000000; stroke-linecap:round; stroke-linejoin:round; stroke-width:2; stroke-opacity:0.1; fill:none" points="149.191,860.613 2352.76,860.613 "/>
<polyline clip-path="url(#clip711)" style="stroke:#000000; stroke-linecap:round; stroke-linejoin:round; stroke-width:2; stroke-opacity:0.1; fill:none" points="149.191,485.546 2352.76,485.546 "/>
<polyline clip-path="url(#clip711)" style="stroke:#000000; stroke-linecap:round; stroke-linejoin:round; stroke-width:2; stroke-opacity:0.1; fill:none" points="149.191,110.48 2352.76,110.48 "/>
<polyline clip-path="url(#clip710)" style="stroke:#000000; stroke-linecap:round; stroke-linejoin:round; stroke-width:4; stroke-opacity:1; fill:none" points="149.191,1486.45 2352.76,1486.45 "/>
<polyline clip-path="url(#clip710)" style="stroke:#000000; stroke-linecap:round; stroke-linejoin:round; stroke-width:4; stroke-opacity:1; fill:none" points="384.792,1486.45 384.792,1467.55 "/>
<polyline clip-path="url(#clip710)" style="stroke:#000000; stroke-linecap:round; stroke-linejoin:round; stroke-width:4; stroke-opacity:1; fill:none" points="817.883,1486.45 817.883,1467.55 "/>
<polyline clip-path="url(#clip710)" style="stroke:#000000; stroke-linecap:round; stroke-linejoin:round; stroke-width:4; stroke-opacity:1; fill:none" points="1250.97,1486.45 1250.97,1467.55 "/>
<polyline clip-path="url(#clip710)" style="stroke:#000000; stroke-linecap:round; stroke-linejoin:round; stroke-width:4; stroke-opacity:1; fill:none" points="1684.06,1486.45 1684.06,1467.55 "/>
<polyline clip-path="url(#clip710)" style="stroke:#000000; stroke-linecap:round; stroke-linejoin:round; stroke-width:4; stroke-opacity:1; fill:none" points="2117.15,1486.45 2117.15,1467.55 "/>
<path clip-path="url(#clip710)" d="M354.549 1532.02 L384.225 1532.02 L384.225 1535.95 L354.549 1535.95 L354.549 1532.02 Z" fill="#000000" fill-rule="nonzero" fill-opacity="1" /><path clip-path="url(#clip710)" d="M395.128 1544.91 L402.767 1544.91 L402.767 1518.55 L394.456 1520.21 L394.456 1515.95 L402.72 1514.29 L407.396 1514.29 L407.396 1544.91 L415.035 1544.91 L415.035 1548.85 L395.128 1548.85 L395.128 1544.91 Z" fill="#000000" fill-rule="nonzero" fill-opacity="1" /><path clip-path="url(#clip710)" d="M817.883 1517.37 Q814.272 1517.37 812.443 1520.93 Q810.637 1524.47 810.637 1531.6 Q810.637 1538.71 812.443 1542.27 Q814.272 1545.82 817.883 1545.82 Q821.517 1545.82 823.323 1542.27 Q825.151 1538.71 825.151 1531.6 Q825.151 1524.47 823.323 1520.93 Q821.517 1517.37 817.883 1517.37 M817.883 1513.66 Q823.693 1513.66 826.748 1518.27 Q829.827 1522.85 829.827 1531.6 Q829.827 1540.33 826.748 1544.94 Q823.693 1549.52 817.883 1549.52 Q812.073 1549.52 808.994 1544.94 Q805.938 1540.33 805.938 1531.6 Q805.938 1522.85 808.994 1518.27 Q812.073 1513.66 817.883 1513.66 Z" fill="#000000" fill-rule="nonzero" fill-opacity="1" /><path clip-path="url(#clip710)" d="M1241.36 1544.91 L1248.99 1544.91 L1248.99 1518.55 L1240.68 1520.21 L1240.68 1515.95 L1248.95 1514.29 L1253.62 1514.29 L1253.62 1544.91 L1261.26 1544.91 L1261.26 1548.85 L1241.36 1548.85 L1241.36 1544.91 Z" fill="#000000" fill-rule="nonzero" fill-opacity="1" /><path clip-path="url(#clip710)" d="M1678.72 1544.91 L1695.04 1544.91 L1695.04 1548.85 L1673.09 1548.85 L1673.09 1544.91 Q1675.75 1542.16 1680.34 1537.53 Q1684.94 1532.88 1686.12 1531.53 Q1688.37 1529.01 1689.25 1527.27 Q1690.15 1525.51 1690.15 1523.82 Q1690.15 1521.07 1688.21 1519.33 Q1686.29 1517.6 1683.18 1517.6 Q1680.99 1517.6 1678.53 1518.36 Q1676.1 1519.13 1673.32 1520.68 L1673.32 1515.95 Q1676.15 1514.82 1678.6 1514.24 Q1681.05 1513.66 1683.09 1513.66 Q1688.46 1513.66 1691.66 1516.35 Q1694.85 1519.03 1694.85 1523.52 Q1694.85 1525.65 1694.04 1527.57 Q1693.25 1529.47 1691.15 1532.07 Q1690.57 1532.74 1687.47 1535.95 Q1684.36 1539.15 1678.72 1544.91 Z" fill="#000000" fill-rule="nonzero" fill-opacity="1" /><path clip-path="url(#clip710)" d="M2121.4 1530.21 Q2124.76 1530.93 2126.63 1533.2 Q2128.53 1535.47 2128.53 1538.8 Q2128.53 1543.92 2125.01 1546.72 Q2121.49 1549.52 2115.01 1549.52 Q2112.84 1549.52 2110.52 1549.08 Q2108.23 1548.66 2105.78 1547.81 L2105.78 1543.29 Q2107.72 1544.43 2110.04 1545.01 Q2112.35 1545.58 2114.87 1545.58 Q2119.27 1545.58 2121.56 1543.85 Q2123.88 1542.11 2123.88 1538.8 Q2123.88 1535.75 2121.73 1534.03 Q2119.6 1532.3 2115.78 1532.3 L2111.75 1532.3 L2111.75 1528.45 L2115.96 1528.45 Q2119.41 1528.45 2121.24 1527.09 Q2123.07 1525.7 2123.07 1523.11 Q2123.07 1520.45 2121.17 1519.03 Q2119.3 1517.6 2115.78 1517.6 Q2113.86 1517.6 2111.66 1518.01 Q2109.46 1518.43 2106.82 1519.31 L2106.82 1515.14 Q2109.48 1514.4 2111.8 1514.03 Q2114.13 1513.66 2116.19 1513.66 Q2121.52 1513.66 2124.62 1516.09 Q2127.72 1518.5 2127.72 1522.62 Q2127.72 1525.49 2126.08 1527.48 Q2124.43 1529.45 2121.4 1530.21 Z" fill="#000000" fill-rule="nonzero" fill-opacity="1" /><polyline clip-path="url(#clip710)" style="stroke:#000000; stroke-linecap:round; stroke-linejoin:round; stroke-width:4; stroke-opacity:1; fill:none" points="149.191,1486.45 149.191,47.2441 "/>
<polyline clip-path="url(#clip710)" style="stroke:#000000; stroke-linecap:round; stroke-linejoin:round; stroke-width:4; stroke-opacity:1; fill:none" points="149.191,1235.68 168.089,1235.68 "/>
<polyline clip-path="url(#clip710)" style="stroke:#000000; stroke-linecap:round; stroke-linejoin:round; stroke-width:4; stroke-opacity:1; fill:none" points="149.191,860.613 168.089,860.613 "/>
<polyline clip-path="url(#clip710)" style="stroke:#000000; stroke-linecap:round; stroke-linejoin:round; stroke-width:4; stroke-opacity:1; fill:none" points="149.191,485.546 168.089,485.546 "/>
<polyline clip-path="url(#clip710)" style="stroke:#000000; stroke-linecap:round; stroke-linejoin:round; stroke-width:4; stroke-opacity:1; fill:none" points="149.191,110.48 168.089,110.48 "/>
<path clip-path="url(#clip710)" d="M50.9921 1236.13 L80.6679 1236.13 L80.6679 1240.07 L50.9921 1240.07 L50.9921 1236.13 Z" fill="#000000" fill-rule="nonzero" fill-opacity="1" /><path clip-path="url(#clip710)" d="M103.608 1222.47 L91.8021 1240.92 L103.608 1240.92 L103.608 1222.47 M102.381 1218.4 L108.26 1218.4 L108.26 1240.92 L113.191 1240.92 L113.191 1244.81 L108.26 1244.81 L108.26 1252.96 L103.608 1252.96 L103.608 1244.81 L88.0058 1244.81 L88.0058 1240.3 L102.381 1218.4 Z" fill="#000000" fill-rule="nonzero" fill-opacity="1" /><path clip-path="url(#clip710)" d="M53.0754 861.064 L82.7512 861.064 L82.7512 864.999 L53.0754 864.999 L53.0754 861.064 Z" fill="#000000" fill-rule="nonzero" fill-opacity="1" /><path clip-path="url(#clip710)" d="M96.8715 873.957 L113.191 873.957 L113.191 877.893 L91.2465 877.893 L91.2465 873.957 Q93.9086 871.203 98.4919 866.573 Q103.098 861.92 104.279 860.578 Q106.524 858.055 107.404 856.319 Q108.307 854.559 108.307 852.87 Q108.307 850.115 106.362 848.379 Q104.441 846.643 101.339 846.643 Q99.14 846.643 96.6863 847.407 Q94.2558 848.17 91.478 849.721 L91.478 844.999 Q94.3021 843.865 96.7558 843.286 Q99.2095 842.708 101.246 842.708 Q106.617 842.708 109.811 845.393 Q113.006 848.078 113.006 852.569 Q113.006 854.698 112.196 856.619 Q111.408 858.518 109.302 861.11 Q108.723 861.781 105.621 864.999 Q102.52 868.193 96.8715 873.957 Z" fill="#000000" fill-rule="nonzero" fill-opacity="1" /><path clip-path="url(#clip710)" d="M101.246 471.345 Q97.6354 471.345 95.8067 474.91 Q94.0012 478.452 94.0012 485.581 Q94.0012 492.688 95.8067 496.252 Q97.6354 499.794 101.246 499.794 Q104.881 499.794 106.686 496.252 Q108.515 492.688 108.515 485.581 Q108.515 478.452 106.686 474.91 Q104.881 471.345 101.246 471.345 M101.246 467.641 Q107.057 467.641 110.112 472.248 Q113.191 476.831 113.191 485.581 Q113.191 494.308 110.112 498.914 Q107.057 503.498 101.246 503.498 Q95.4363 503.498 92.3576 498.914 Q89.3021 494.308 89.3021 485.581 Q89.3021 476.831 92.3576 472.248 Q95.4363 467.641 101.246 467.641 Z" fill="#000000" fill-rule="nonzero" fill-opacity="1" /><path clip-path="url(#clip710)" d="M96.8715 123.825 L113.191 123.825 L113.191 127.76 L91.2465 127.76 L91.2465 123.825 Q93.9086 121.07 98.4919 116.441 Q103.098 111.788 104.279 110.446 Q106.524 107.922 107.404 106.186 Q108.307 104.427 108.307 102.737 Q108.307 99.9826 106.362 98.2465 Q104.441 96.5104 101.339 96.5104 Q99.14 96.5104 96.6863 97.2743 Q94.2558 98.0382 91.478 99.5891 L91.478 94.8669 Q94.3021 93.7326 96.7558 93.1539 Q99.2095 92.5752 101.246 92.5752 Q106.617 92.5752 109.811 95.2604 Q113.006 97.9456 113.006 102.436 Q113.006 104.566 112.196 106.487 Q111.408 108.385 109.302 110.978 Q108.723 111.649 105.621 114.867 Q102.52 118.061 96.8715 123.825 Z" fill="#000000" fill-rule="nonzero" fill-opacity="1" /><polyline clip-path="url(#clip711)" style="stroke:#009af9; stroke-linecap:round; stroke-linejoin:round; stroke-width:4; stroke-opacity:1; fill:none" points="558.028,1430.71 211.556,1415.71 "/>
<polyline clip-path="url(#clip711)" style="stroke:#009af9; stroke-linecap:round; stroke-linejoin:round; stroke-width:4; stroke-opacity:1; fill:none" points="246.744,1435.25 211.556,1415.71 248.301,1399.28 "/>
<polyline clip-path="url(#clip711)" style="stroke:#009af9; stroke-linecap:round; stroke-linejoin:round; stroke-width:4; stroke-opacity:1; fill:none" points="211.556,1415.71 558.028,1430.71 "/>
<polyline clip-path="url(#clip711)" style="stroke:#009af9; stroke-linecap:round; stroke-linejoin:round; stroke-width:4; stroke-opacity:1; fill:none" points="523.381,1243.18 246.203,1228.18 "/>
<polyline clip-path="url(#clip711)" style="stroke:#009af9; stroke-linecap:round; stroke-linejoin:round; stroke-width:4; stroke-opacity:1; fill:none" points="281.178,1248.1 246.203,1228.18 283.123,1212.15 "/>
<polyline clip-path="url(#clip711)" style="stroke:#009af9; stroke-linecap:round; stroke-linejoin:round; stroke-width:4; stroke-opacity:1; fill:none" points="246.203,1228.18 523.381,1243.18 "/>
<polyline clip-path="url(#clip711)" style="stroke:#009af9; stroke-linecap:round; stroke-linejoin:round; stroke-width:4; stroke-opacity:1; fill:none" points="488.734,1055.65 280.85,1040.64 "/>
<polyline clip-path="url(#clip711)" style="stroke:#009af9; stroke-linecap:round; stroke-linejoin:round; stroke-width:4; stroke-opacity:1; fill:none" points="315.461,1061.19 280.85,1040.64 318.053,1025.28 "/>
<polyline clip-path="url(#clip711)" style="stroke:#009af9; stroke-linecap:round; stroke-linejoin:round; stroke-width:4; stroke-opacity:1; fill:none" points="280.85,1040.64 488.734,1055.65 "/>
<polyline clip-path="url(#clip711)" style="stroke:#009af9; stroke-linecap:round; stroke-linejoin:round; stroke-width:4; stroke-opacity:1; fill:none" points="454.087,868.114 315.498,853.111 "/>
<polyline clip-path="url(#clip711)" style="stroke:#009af9; stroke-linecap:round; stroke-linejoin:round; stroke-width:4; stroke-opacity:1; fill:none" points="349.351,874.881 315.498,853.111 353.226,839.09 "/>
<polyline clip-path="url(#clip711)" style="stroke:#009af9; stroke-linecap:round; stroke-linejoin:round; stroke-width:4; stroke-opacity:1; fill:none" points="315.498,853.111 454.087,868.114 "/>
<polyline clip-path="url(#clip711)" style="stroke:#009af9; stroke-linecap:round; stroke-linejoin:round; stroke-width:4; stroke-opacity:1; fill:none" points="419.439,680.581 350.145,665.578 "/>
<polyline clip-path="url(#clip711)" style="stroke:#009af9; stroke-linecap:round; stroke-linejoin:round; stroke-width:4; stroke-opacity:1; fill:none" points="381.521,690.788 350.145,665.578 389.139,655.603 "/>
<polyline clip-path="url(#clip711)" style="stroke:#009af9; stroke-linecap:round; stroke-linejoin:round; stroke-width:4; stroke-opacity:1; fill:none" points="350.145,665.578 419.439,680.581 "/>
<polyline clip-path="url(#clip711)" style="stroke:#009af9; stroke-linecap:round; stroke-linejoin:round; stroke-width:4; stroke-opacity:1; fill:none" points="384.792,493.048 384.792,478.045 "/>
<polyline clip-path="url(#clip711)" style="stroke:#009af9; stroke-linecap:round; stroke-linejoin:round; stroke-width:4; stroke-opacity:1; fill:none" points="366.792,514.045 384.792,478.045 402.792,514.045 "/>
<polyline clip-path="url(#clip711)" style="stroke:#009af9; stroke-linecap:round; stroke-linejoin:round; stroke-width:4; stroke-opacity:1; fill:none" points="384.792,478.045 384.792,493.048 "/>
<polyline clip-path="url(#clip711)" style="stroke:#009af9; stroke-linecap:round; stroke-linejoin:round; stroke-width:4; stroke-opacity:1; fill:none" points="350.145,305.515 419.439,290.512 "/>
<polyline clip-path="url(#clip711)" style="stroke:#009af9; stroke-linecap:round; stroke-linejoin:round; stroke-width:4; stroke-opacity:1; fill:none" points="380.446,280.537 419.439,290.512 388.063,315.722 "/>
<polyline clip-path="url(#clip711)" style="stroke:#009af9; stroke-linecap:round; stroke-linejoin:round; stroke-width:4; stroke-opacity:1; fill:none" points="419.439,290.512 350.145,305.515 "/>
<polyline clip-path="url(#clip711)" style="stroke:#009af9; stroke-linecap:round; stroke-linejoin:round; stroke-width:4; stroke-opacity:1; fill:none" points="315.498,117.982 454.087,102.979 "/>
<polyline clip-path="url(#clip711)" style="stroke:#009af9; stroke-linecap:round; stroke-linejoin:round; stroke-width:4; stroke-opacity:1; fill:none" points="416.359,88.9579 454.087,102.979 420.233,124.749 "/>
<polyline clip-path="url(#clip711)" style="stroke:#009af9; stroke-linecap:round; stroke-linejoin:round; stroke-width:4; stroke-opacity:1; fill:none" points="454.087,102.979 315.498,117.982 "/>
<polyline clip-path="url(#clip711)" style="stroke:#009af9; stroke-linecap:round; stroke-linejoin:round; stroke-width:4; stroke-opacity:1; fill:none" points="991.119,1423.21 644.647,1423.21 "/>
<polyline clip-path="url(#clip711)" style="stroke:#009af9; stroke-linecap:round; stroke-linejoin:round; stroke-width:4; stroke-opacity:1; fill:none" points="680.647,1441.21 644.647,1423.21 680.647,1405.21 "/>
<polyline clip-path="url(#clip711)" style="stroke:#009af9; stroke-linecap:round; stroke-linejoin:round; stroke-width:4; stroke-opacity:1; fill:none" points="644.647,1423.21 991.119,1423.21 "/>
<polyline clip-path="url(#clip711)" style="stroke:#009af9; stroke-linecap:round; stroke-linejoin:round; stroke-width:4; stroke-opacity:1; fill:none" points="956.472,1235.68 679.294,1235.68 "/>
<polyline clip-path="url(#clip711)" style="stroke:#009af9; stroke-linecap:round; stroke-linejoin:round; stroke-width:4; stroke-opacity:1; fill:none" points="715.294,1253.68 679.294,1235.68 715.294,1217.68 "/>
<polyline clip-path="url(#clip711)" style="stroke:#009af9; stroke-linecap:round; stroke-linejoin:round; stroke-width:4; stroke-opacity:1; fill:none" points="679.294,1235.68 956.472,1235.68 "/>
<polyline clip-path="url(#clip711)" style="stroke:#009af9; stroke-linecap:round; stroke-linejoin:round; stroke-width:4; stroke-opacity:1; fill:none" points="921.825,1048.15 713.941,1048.15 "/>
<polyline clip-path="url(#clip711)" style="stroke:#009af9; stroke-linecap:round; stroke-linejoin:round; stroke-width:4; stroke-opacity:1; fill:none" points="749.941,1066.15 713.941,1048.15 749.941,1030.15 "/>
<polyline clip-path="url(#clip711)" style="stroke:#009af9; stroke-linecap:round; stroke-linejoin:round; stroke-width:4; stroke-opacity:1; fill:none" points="713.941,1048.15 921.825,1048.15 "/>
<polyline clip-path="url(#clip711)" style="stroke:#009af9; stroke-linecap:round; stroke-linejoin:round; stroke-width:4; stroke-opacity:1; fill:none" points="887.177,860.613 748.588,860.613 "/>
<polyline clip-path="url(#clip711)" style="stroke:#009af9; stroke-linecap:round; stroke-linejoin:round; stroke-width:4; stroke-opacity:1; fill:none" points="784.588,878.613 748.588,860.613 784.588,842.613 "/>
<polyline clip-path="url(#clip711)" style="stroke:#009af9; stroke-linecap:round; stroke-linejoin:round; stroke-width:4; stroke-opacity:1; fill:none" points="748.588,860.613 887.177,860.613 "/>
<polyline clip-path="url(#clip711)" style="stroke:#009af9; stroke-linecap:round; stroke-linejoin:round; stroke-width:4; stroke-opacity:1; fill:none" points="852.53,673.079 783.236,673.079 "/>
<polyline clip-path="url(#clip711)" style="stroke:#009af9; stroke-linecap:round; stroke-linejoin:round; stroke-width:4; stroke-opacity:1; fill:none" points="819.236,691.079 783.236,673.079 819.236,655.079 "/>
<polyline clip-path="url(#clip711)" style="stroke:#009af9; stroke-linecap:round; stroke-linejoin:round; stroke-width:4; stroke-opacity:1; fill:none" points="783.236,673.079 852.53,673.079 "/>
<polyline clip-path="url(#clip711)" style="stroke:#009af9; stroke-linecap:round; stroke-linejoin:round; stroke-width:4; stroke-opacity:1; fill:none" points="783.236,298.013 852.53,298.013 "/>
<polyline clip-path="url(#clip711)" style="stroke:#009af9; stroke-linecap:round; stroke-linejoin:round; stroke-width:4; stroke-opacity:1; fill:none" points="816.53,280.013 852.53,298.013 816.53,316.013 "/>
<polyline clip-path="url(#clip711)" style="stroke:#009af9; stroke-linecap:round; stroke-linejoin:round; stroke-width:4; stroke-opacity:1; fill:none" points="852.53,298.013 783.236,298.013 "/>
<polyline clip-path="url(#clip711)" style="stroke:#009af9; stroke-linecap:round; stroke-linejoin:round; stroke-width:4; stroke-opacity:1; fill:none" points="748.588,110.48 887.177,110.48 "/>
<polyline clip-path="url(#clip711)" style="stroke:#009af9; stroke-linecap:round; stroke-linejoin:round; stroke-width:4; stroke-opacity:1; fill:none" points="851.177,92.4802 887.177,110.48 851.177,128.48 "/>
<polyline clip-path="url(#clip711)" style="stroke:#009af9; stroke-linecap:round; stroke-linejoin:round; stroke-width:4; stroke-opacity:1; fill:none" points="887.177,110.48 748.588,110.48 "/>
<polyline clip-path="url(#clip711)" style="stroke:#009af9; stroke-linecap:round; stroke-linejoin:round; stroke-width:4; stroke-opacity:1; fill:none" points="1424.21,1415.71 1077.74,1430.71 "/>
<polyline clip-path="url(#clip711)" style="stroke:#009af9; stroke-linecap:round; stroke-linejoin:round; stroke-width:4; stroke-opacity:1; fill:none" points="1114.48,1447.14 1077.74,1430.71 1112.92,1411.17 "/>
<polyline clip-path="url(#clip711)" style="stroke:#009af9; stroke-linecap:round; stroke-linejoin:round; stroke-width:4; stroke-opacity:1; fill:none" points="1077.74,1430.71 1424.21,1415.71 "/>
<polyline clip-path="url(#clip711)" style="stroke:#009af9; stroke-linecap:round; stroke-linejoin:round; stroke-width:4; stroke-opacity:1; fill:none" points="1389.56,1228.18 1112.38,1243.18 "/>
<polyline clip-path="url(#clip711)" style="stroke:#009af9; stroke-linecap:round; stroke-linejoin:round; stroke-width:4; stroke-opacity:1; fill:none" points="1149.3,1259.21 1112.38,1243.18 1147.36,1223.26 "/>
<polyline clip-path="url(#clip711)" style="stroke:#009af9; stroke-linecap:round; stroke-linejoin:round; stroke-width:4; stroke-opacity:1; fill:none" points="1112.38,1243.18 1389.56,1228.18 "/>
<polyline clip-path="url(#clip711)" style="stroke:#009af9; stroke-linecap:round; stroke-linejoin:round; stroke-width:4; stroke-opacity:1; fill:none" points="1354.92,1040.64 1147.03,1055.65 "/>
<polyline clip-path="url(#clip711)" style="stroke:#009af9; stroke-linecap:round; stroke-linejoin:round; stroke-width:4; stroke-opacity:1; fill:none" points="1184.23,1071.01 1147.03,1055.65 1181.64,1035.1 "/>
<polyline clip-path="url(#clip711)" style="stroke:#009af9; stroke-linecap:round; stroke-linejoin:round; stroke-width:4; stroke-opacity:1; fill:none" points="1147.03,1055.65 1354.92,1040.64 "/>
<polyline clip-path="url(#clip711)" style="stroke:#009af9; stroke-linecap:round; stroke-linejoin:round; stroke-width:4; stroke-opacity:1; fill:none" points="1320.27,853.111 1181.68,868.114 "/>
<polyline clip-path="url(#clip711)" style="stroke:#009af9; stroke-linecap:round; stroke-linejoin:round; stroke-width:4; stroke-opacity:1; fill:none" points="1219.41,882.135 1181.68,868.114 1215.53,846.344 "/>
<polyline clip-path="url(#clip711)" style="stroke:#009af9; stroke-linecap:round; stroke-linejoin:round; stroke-width:4; stroke-opacity:1; fill:none" points="1181.68,868.114 1320.27,853.111 "/>
<polyline clip-path="url(#clip711)" style="stroke:#009af9; stroke-linecap:round; stroke-linejoin:round; stroke-width:4; stroke-opacity:1; fill:none" points="1285.62,665.578 1216.33,680.581 "/>
<polyline clip-path="url(#clip711)" style="stroke:#009af9; stroke-linecap:round; stroke-linejoin:round; stroke-width:4; stroke-opacity:1; fill:none" points="1255.32,690.555 1216.33,680.581 1247.7,655.371 "/>
<polyline clip-path="url(#clip711)" style="stroke:#009af9; stroke-linecap:round; stroke-linejoin:round; stroke-width:4; stroke-opacity:1; fill:none" points="1216.33,680.581 1285.62,665.578 "/>
<polyline clip-path="url(#clip711)" style="stroke:#009af9; stroke-linecap:round; stroke-linejoin:round; stroke-width:4; stroke-opacity:1; fill:none" points="1250.97,478.045 1250.97,493.048 "/>
<polyline clip-path="url(#clip711)" style="stroke:#009af9; stroke-linecap:round; stroke-linejoin:round; stroke-width:4; stroke-opacity:1; fill:none" points="1268.97,457.048 1250.97,493.048 1232.97,457.048 "/>
<polyline clip-path="url(#clip711)" style="stroke:#009af9; stroke-linecap:round; stroke-linejoin:round; stroke-width:4; stroke-opacity:1; fill:none" points="1250.97,493.048 1250.97,478.045 "/>
<polyline clip-path="url(#clip711)" style="stroke:#009af9; stroke-linecap:round; stroke-linejoin:round; stroke-width:4; stroke-opacity:1; fill:none" points="1216.33,290.512 1285.62,305.515 "/>
<polyline clip-path="url(#clip711)" style="stroke:#009af9; stroke-linecap:round; stroke-linejoin:round; stroke-width:4; stroke-opacity:1; fill:none" points="1254.24,280.305 1285.62,305.515 1246.63,315.489 "/>
<polyline clip-path="url(#clip711)" style="stroke:#009af9; stroke-linecap:round; stroke-linejoin:round; stroke-width:4; stroke-opacity:1; fill:none" points="1285.62,305.515 1216.33,290.512 "/>
<polyline clip-path="url(#clip711)" style="stroke:#009af9; stroke-linecap:round; stroke-linejoin:round; stroke-width:4; stroke-opacity:1; fill:none" points="1181.68,102.979 1320.27,117.982 "/>
<polyline clip-path="url(#clip711)" style="stroke:#009af9; stroke-linecap:round; stroke-linejoin:round; stroke-width:4; stroke-opacity:1; fill:none" points="1286.41,96.2117 1320.27,117.982 1282.54,132.003 "/>
<polyline clip-path="url(#clip711)" style="stroke:#009af9; stroke-linecap:round; stroke-linejoin:round; stroke-width:4; stroke-opacity:1; fill:none" points="1320.27,117.982 1181.68,102.979 "/>
<polyline clip-path="url(#clip711)" style="stroke:#009af9; stroke-linecap:round; stroke-linejoin:round; stroke-width:4; stroke-opacity:1; fill:none" points="1857.3,1408.21 1510.83,1438.21 "/>
<polyline clip-path="url(#clip711)" style="stroke:#009af9; stroke-linecap:round; stroke-linejoin:round; stroke-width:4; stroke-opacity:1; fill:none" points="1548.25,1453.04 1510.83,1438.21 1545.14,1417.18 "/>
<polyline clip-path="url(#clip711)" style="stroke:#009af9; stroke-linecap:round; stroke-linejoin:round; stroke-width:4; stroke-opacity:1; fill:none" points="1510.83,1438.21 1857.3,1408.21 "/>
<polyline clip-path="url(#clip711)" style="stroke:#009af9; stroke-linecap:round; stroke-linejoin:round; stroke-width:4; stroke-opacity:1; fill:none" points="1822.65,1220.68 1545.48,1250.68 "/>
<polyline clip-path="url(#clip711)" style="stroke:#009af9; stroke-linecap:round; stroke-linejoin:round; stroke-width:4; stroke-opacity:1; fill:none" points="1583.2,1264.7 1545.48,1250.68 1579.33,1228.91 "/>
<polyline clip-path="url(#clip711)" style="stroke:#009af9; stroke-linecap:round; stroke-linejoin:round; stroke-width:4; stroke-opacity:1; fill:none" points="1545.48,1250.68 1822.65,1220.68 "/>
<polyline clip-path="url(#clip711)" style="stroke:#009af9; stroke-linecap:round; stroke-linejoin:round; stroke-width:4; stroke-opacity:1; fill:none" points="1788.01,1033.14 1580.12,1063.15 "/>
<polyline clip-path="url(#clip711)" style="stroke:#009af9; stroke-linecap:round; stroke-linejoin:round; stroke-width:4; stroke-opacity:1; fill:none" points="1618.32,1075.82 1580.12,1063.15 1613.18,1040.19 "/>
<polyline clip-path="url(#clip711)" style="stroke:#009af9; stroke-linecap:round; stroke-linejoin:round; stroke-width:4; stroke-opacity:1; fill:none" points="1580.12,1063.15 1788.01,1033.14 "/>
<polyline clip-path="url(#clip711)" style="stroke:#009af9; stroke-linecap:round; stroke-linejoin:round; stroke-width:4; stroke-opacity:1; fill:none" points="1753.36,845.61 1614.77,875.615 "/>
<polyline clip-path="url(#clip711)" style="stroke:#009af9; stroke-linecap:round; stroke-linejoin:round; stroke-width:4; stroke-opacity:1; fill:none" points="1653.76,885.59 1614.77,875.615 1646.15,850.405 "/>
<polyline clip-path="url(#clip711)" style="stroke:#009af9; stroke-linecap:round; stroke-linejoin:round; stroke-width:4; stroke-opacity:1; fill:none" points="1614.77,875.615 1753.36,845.61 "/>
<polyline clip-path="url(#clip711)" style="stroke:#009af9; stroke-linecap:round; stroke-linejoin:round; stroke-width:4; stroke-opacity:1; fill:none" points="1718.71,658.077 1649.42,688.082 "/>
<polyline clip-path="url(#clip711)" style="stroke:#009af9; stroke-linecap:round; stroke-linejoin:round; stroke-width:4; stroke-opacity:1; fill:none" points="1689.61,690.295 1649.42,688.082 1675.3,657.259 "/>
<polyline clip-path="url(#clip711)" style="stroke:#009af9; stroke-linecap:round; stroke-linejoin:round; stroke-width:4; stroke-opacity:1; fill:none" points="1649.42,688.082 1718.71,658.077 "/>
<polyline clip-path="url(#clip711)" style="stroke:#009af9; stroke-linecap:round; stroke-linejoin:round; stroke-width:4; stroke-opacity:1; fill:none" points="1684.06,470.544 1684.06,500.549 "/>
<polyline clip-path="url(#clip711)" style="stroke:#009af9; stroke-linecap:round; stroke-linejoin:round; stroke-width:4; stroke-opacity:1; fill:none" points="1702.06,464.549 1684.06,500.549 1666.06,464.549 "/>
<polyline clip-path="url(#clip711)" style="stroke:#009af9; stroke-linecap:round; stroke-linejoin:round; stroke-width:4; stroke-opacity:1; fill:none" points="1684.06,500.549 1684.06,470.544 "/>
<polyline clip-path="url(#clip711)" style="stroke:#009af9; stroke-linecap:round; stroke-linejoin:round; stroke-width:4; stroke-opacity:1; fill:none" points="1649.42,283.011 1718.71,313.016 "/>
<polyline clip-path="url(#clip711)" style="stroke:#009af9; stroke-linecap:round; stroke-linejoin:round; stroke-width:4; stroke-opacity:1; fill:none" points="1692.83,282.193 1718.71,313.016 1678.52,315.229 "/>
<polyline clip-path="url(#clip711)" style="stroke:#009af9; stroke-linecap:round; stroke-linejoin:round; stroke-width:4; stroke-opacity:1; fill:none" points="1718.71,313.016 1649.42,283.011 "/>
<polyline clip-path="url(#clip711)" style="stroke:#009af9; stroke-linecap:round; stroke-linejoin:round; stroke-width:4; stroke-opacity:1; fill:none" points="1614.77,95.4776 1753.36,125.483 "/>
<polyline clip-path="url(#clip711)" style="stroke:#009af9; stroke-linecap:round; stroke-linejoin:round; stroke-width:4; stroke-opacity:1; fill:none" points="1721.98,100.273 1753.36,125.483 1714.36,135.458 "/>
<polyline clip-path="url(#clip711)" style="stroke:#009af9; stroke-linecap:round; stroke-linejoin:round; stroke-width:4; stroke-opacity:1; fill:none" points="1753.36,125.483 1614.77,95.4776 "/>
<polyline clip-path="url(#clip711)" style="stroke:#009af9; stroke-linecap:round; stroke-linejoin:round; stroke-width:4; stroke-opacity:1; fill:none" points="2290.39,1400.71 1943.92,1445.72 "/>
<polyline clip-path="url(#clip711)" style="stroke:#009af9; stroke-linecap:round; stroke-linejoin:round; stroke-width:4; stroke-opacity:1; fill:none" points="1981.94,1458.93 1943.92,1445.72 1977.3,1423.23 "/>
<polyline clip-path="url(#clip711)" style="stroke:#009af9; stroke-linecap:round; stroke-linejoin:round; stroke-width:4; stroke-opacity:1; fill:none" points="1943.92,1445.72 2290.39,1400.71 "/>
<polyline clip-path="url(#clip711)" style="stroke:#009af9; stroke-linecap:round; stroke-linejoin:round; stroke-width:4; stroke-opacity:1; fill:none" points="2255.74,1213.17 1978.57,1258.18 "/>
<polyline clip-path="url(#clip711)" style="stroke:#009af9; stroke-linecap:round; stroke-linejoin:round; stroke-width:4; stroke-opacity:1; fill:none" points="2016.99,1270.18 1978.57,1258.18 2011.22,1234.65 "/>
<polyline clip-path="url(#clip711)" style="stroke:#009af9; stroke-linecap:round; stroke-linejoin:round; stroke-width:4; stroke-opacity:1; fill:none" points="1978.57,1258.18 2255.74,1213.17 "/>
<polyline clip-path="url(#clip711)" style="stroke:#009af9; stroke-linecap:round; stroke-linejoin:round; stroke-width:4; stroke-opacity:1; fill:none" points="2221.1,1025.64 2013.21,1070.65 "/>
<polyline clip-path="url(#clip711)" style="stroke:#009af9; stroke-linecap:round; stroke-linejoin:round; stroke-width:4; stroke-opacity:1; fill:none" points="2052.21,1080.62 2013.21,1070.65 2044.59,1045.44 "/>
<polyline clip-path="url(#clip711)" style="stroke:#009af9; stroke-linecap:round; stroke-linejoin:round; stroke-width:4; stroke-opacity:1; fill:none" points="2013.21,1070.65 2221.1,1025.64 "/>
<polyline clip-path="url(#clip711)" style="stroke:#009af9; stroke-linecap:round; stroke-linejoin:round; stroke-width:4; stroke-opacity:1; fill:none" points="2186.45,838.109 2047.86,883.116 "/>
<polyline clip-path="url(#clip711)" style="stroke:#009af9; stroke-linecap:round; stroke-linejoin:round; stroke-width:4; stroke-opacity:1; fill:none" points="2087.66,889.117 2047.86,883.116 2076.54,854.877 "/>
<polyline clip-path="url(#clip711)" style="stroke:#009af9; stroke-linecap:round; stroke-linejoin:round; stroke-width:4; stroke-opacity:1; fill:none" points="2047.86,883.116 2186.45,838.109 "/>
<polyline clip-path="url(#clip711)" style="stroke:#009af9; stroke-linecap:round; stroke-linejoin:round; stroke-width:4; stroke-opacity:1; fill:none" points="2151.8,650.575 2082.51,695.583 "/>
<polyline clip-path="url(#clip711)" style="stroke:#009af9; stroke-linecap:round; stroke-linejoin:round; stroke-width:4; stroke-opacity:1; fill:none" points="2122.5,691.069 2082.51,695.583 2102.89,660.879 "/>
<polyline clip-path="url(#clip711)" style="stroke:#009af9; stroke-linecap:round; stroke-linejoin:round; stroke-width:4; stroke-opacity:1; fill:none" points="2082.51,695.583 2151.8,650.575 "/>
<polyline clip-path="url(#clip711)" style="stroke:#009af9; stroke-linecap:round; stroke-linejoin:round; stroke-width:4; stroke-opacity:1; fill:none" points="2117.15,463.042 2117.15,508.05 "/>
<polyline clip-path="url(#clip711)" style="stroke:#009af9; stroke-linecap:round; stroke-linejoin:round; stroke-width:4; stroke-opacity:1; fill:none" points="2135.15,472.05 2117.15,508.05 2099.15,472.05 "/>
<polyline clip-path="url(#clip711)" style="stroke:#009af9; stroke-linecap:round; stroke-linejoin:round; stroke-width:4; stroke-opacity:1; fill:none" points="2117.15,508.05 2117.15,463.042 "/>
<polyline clip-path="url(#clip711)" style="stroke:#009af9; stroke-linecap:round; stroke-linejoin:round; stroke-width:4; stroke-opacity:1; fill:none" points="2082.51,275.509 2151.8,320.517 "/>
<polyline clip-path="url(#clip711)" style="stroke:#009af9; stroke-linecap:round; stroke-linejoin:round; stroke-width:4; stroke-opacity:1; fill:none" points="2131.42,285.813 2151.8,320.517 2111.81,316.003 "/>
<polyline clip-path="url(#clip711)" style="stroke:#009af9; stroke-linecap:round; stroke-linejoin:round; stroke-width:4; stroke-opacity:1; fill:none" points="2151.8,320.517 2082.51,275.509 "/>
<polyline clip-path="url(#clip711)" style="stroke:#009af9; stroke-linecap:round; stroke-linejoin:round; stroke-width:4; stroke-opacity:1; fill:none" points="2047.86,87.9763 2186.45,132.984 "/>
<polyline clip-path="url(#clip711)" style="stroke:#009af9; stroke-linecap:round; stroke-linejoin:round; stroke-width:4; stroke-opacity:1; fill:none" points="2157.77,104.745 2186.45,132.984 2146.65,138.984 "/>
<polyline clip-path="url(#clip711)" style="stroke:#009af9; stroke-linecap:round; stroke-linejoin:round; stroke-width:4; stroke-opacity:1; fill:none" points="2186.45,132.984 2047.86,87.9763 "/>
</svg>
